<svg width="512" height="512" viewBox="0 0 512 512" xmlns="http://www.w3.org/2000/svg">
  <rect width="512" height="512" rx="112" fill="#0d090e"/>
  <g transform="translate(102 104) scale(1.0)" fill="none" stroke="#fdfffe" stroke-width="11">
    <path d="M154 10.25C171.544 10.25 188.335 24.8186 200.934 50.4629C213.429 75.8964 221.25 111.261 221.25 150.5C221.25 189.739 213.429 225.104 200.934 250.537C188.335 276.181 171.544 290.75 154 290.75C136.456 290.75 119.665 276.181 107.066 250.537C94.5712 225.104 86.75 189.739 86.75 150.5C86.75 111.261 94.5712 75.8964 107.066 50.4629C119.665 24.8186 136.456 10.25 154 10.25Z"/>
    <path d="M13.75 174.5C13.75 156.956 28.3186 140.165 53.9629 127.566C79.3964 115.071 114.761 107.25 154 107.25C193.239 107.25 228.604 115.071 254.037 127.566C279.681 140.165 294.25 156.956 294.25 174.5C294.25 192.044 279.681 208.835 254.037 221.434C228.604 233.929 193.239 241.75 154 241.75C114.761 241.75 79.3964 233.929 53.9629 221.434C28.3186 208.835 13.75 192.044 13.75 174.5Z"/>
    <path d="M55.6491 52.1492C68.0544 39.744 90.229 38.1725 117.271 47.397C144.091 56.5457 174.628 76.0218 202.374 103.768C230.12 131.514 249.596 162.051 258.745 188.871C267.969 215.913 266.398 238.087 253.993 250.493C241.587 262.898 219.413 264.469 192.371 255.245C165.551 246.096 135.014 226.62 107.268 198.874C79.5217 171.128 60.0456 140.591 50.8969 113.771C41.6724 86.7291 43.2439 64.5544 55.6491 52.1492Z"/>
    <path d="M252.492 52.1492C240.087 39.744 217.913 38.1725 190.871 47.397C164.051 56.5457 133.514 76.0218 105.768 103.768C78.0216 131.514 58.5455 162.051 49.3968 188.871C40.1723 215.913 41.7438 238.087 54.149 250.493C66.5543 262.898 88.7289 264.469 115.771 255.245C142.591 246.096 173.127 226.62 200.874 198.874C228.62 171.128 248.096 140.591 257.245 113.771C266.469 86.7291 264.898 64.5544 252.492 52.1492Z"/>
  </g>
  <path d="M235 366L173 222H208L261 349H244L299 222H332L270 366H235Z" fill="#ec1b27"/>
</svg>
